<svg xmlns="http://www.w3.org/2000/svg" viewBox="0 0 48 48">
  <path fill="#EA4335" d="M24 9.5c3.54 0 6.72 1.22 9.22 3.22l6.9-6.9C35.9 2.14 30.3 0 24 0 14.62 0 6.51 5.38 2.56 13.22l8.02 6.22C12.6 13.1 17.9 9.5 24 9.5z"></path>
  <path fill="#4285F4" d="M46.1 24.5c0-1.64-.15-3.22-.43-4.75H24v9h12.5c-.54 2.9-2.16 5.36-4.6 7.02l7.1 5.5C43.9 37.6 46.1 31.6 46.1 24.5z"></path>
  <path fill="#FBBC05" d="M10.58 28.44c-.5-1.5-.78-3.1-.78-4.94s.28-3.44.78-4.94l-8.02-6.22C.9 15.1 0 19.4 0 23.5s.9 8.4 2.56 11.66l8.02-6.22z"></path>
  <path fill="#34A853" d="M24 48c6.3 0 11.6-2.08 15.46-5.64l-7.1-5.5c-1.96 1.32-4.46 2.1-8.36 2.1-6.1 0-11.4-3.6-13.42-8.94l-8.02 6.22C6.51 42.62 14.62 48 24 48z"></path>
</svg>
